<svg width="32" height="32" viewBox="0 0 32 32" fill="none" xmlns="http://www.w3.org/2000/svg">
<g clip-path="url(#clip0_2_154)">
<path d="M11.8125 6.5625H9.1875C8.49131 6.5625 7.82363 6.83906 7.33134 7.33134C6.83906 7.82363 6.5625 8.49131 6.5625 9.1875V24.9375C6.5625 25.6337 6.83906 26.3014 7.33134 26.7937C7.82363 27.2859 8.49131 27.5625 9.1875 27.5625H22.3125C23.0087 27.5625 23.6764 27.2859 24.1687 26.7937C24.6609 26.3014 24.9375 25.6337 24.9375 24.9375V9.1875C24.9375 8.49131 24.6609 7.82363 24.1687 7.33134C23.6764 6.83906 23.0087 6.5625 22.3125 6.5625H19.6875" stroke="#1E2246" stroke-width="1.96875" stroke-linecap="round" stroke-linejoin="round"/>
<path d="M17.0625 3.9375H14.4375C12.9878 3.9375 11.8125 5.11275 11.8125 6.5625C11.8125 8.01225 12.9878 9.1875 14.4375 9.1875H17.0625C18.5122 9.1875 19.6875 8.01225 19.6875 6.5625C19.6875 5.11275 18.5122 3.9375 17.0625 3.9375Z" stroke="#1E2246" stroke-width="1.96875" stroke-linecap="round" stroke-linejoin="round"/>
<path d="M11.8125 22.3125V15.75" stroke="#1E2246" stroke-width="1.96875" stroke-linecap="round" stroke-linejoin="round"/>
<path d="M15.75 22.3125V21" stroke="#1E2246" stroke-width="1.96875" stroke-linecap="round" stroke-linejoin="round"/>
<path d="M19.6875 22.3125V18.375" stroke="#1E2246" stroke-width="1.96875" stroke-linecap="round" stroke-linejoin="round"/>
</g>
<defs>
<clipPath id="clip0_2_154">
<rect width="31.5" height="31.5" fill="white"/>
</clipPath>
</defs>
</svg>
