<svg width="92" height="30" viewBox="0 0 92 30" fill="none" xmlns="http://www.w3.org/2000/svg">
<g clip-path="url(#clip0_1_82)">
<path d="M11.3192 0.00332642H12.1366C14.9741 0.0650121 17.7654 1.2062 19.7702 3.2264C19.0299 3.98205 18.2743 4.70686 17.5495 5.46251C16.4237 4.4447 15.0666 3.6582 13.5862 3.38062C11.3963 2.91798 9.03685 3.33435 7.2017 4.58349C5.19691 5.89431 3.83982 8.115 3.54682 10.4899C3.22297 12.834 3.88609 15.3014 5.41281 17.1211C6.87785 18.8946 9.11395 20.0049 11.4272 20.082C13.5862 20.2054 15.8377 19.5423 17.4107 18.031C18.6444 16.9669 19.215 15.3476 19.4001 13.7747C16.8401 13.7747 14.2801 13.7901 11.7202 13.7747V10.5978H22.4998C23.0549 14.006 22.253 17.8459 19.6622 20.2825C17.935 22.0097 15.5447 23.0275 13.1081 23.228C10.7486 23.4593 8.31204 23.0121 6.21472 21.8709C3.70103 20.5292 1.69624 18.2623 0.70927 15.5944C-0.216016 13.1424 -0.231437 10.3665 0.632163 7.8991C1.41866 5.64757 2.92996 3.6582 4.87306 2.27028C6.73905 0.897769 9.006 0.142119 11.3192 0.00332642Z" fill="#9B948E"/>
<path d="M73.1593 0.804565H76.4595V22.8264C75.3645 22.8264 74.2542 22.8418 73.1593 22.811C73.1747 15.4858 73.1593 8.14517 73.1593 0.804565Z" fill="#9B948E"/>
<path d="M29.8405 8.43819C31.8761 8.05266 34.0814 8.48446 35.7623 9.70275C37.289 10.7822 38.3531 12.4786 38.677 14.3292C39.0934 16.4727 38.569 18.8168 37.1811 20.5132C35.6852 22.41 33.2332 23.4278 30.8429 23.2736C28.653 23.1502 26.5249 22.0553 25.2295 20.2664C23.7644 18.2925 23.4097 15.5783 24.2117 13.2651C25.0136 10.7822 27.2805 8.88541 29.8405 8.43819ZM30.3031 11.3683C29.4704 11.5842 28.6993 12.0622 28.1441 12.7408C26.6482 14.5297 26.7408 17.4443 28.3909 19.1098C29.3316 20.0659 30.7503 20.5132 32.0612 20.251C33.2795 20.0351 34.3435 19.2178 34.9296 18.1383C35.9474 16.3031 35.6544 13.774 34.0968 12.3398C33.0944 11.4145 31.6294 11.029 30.3031 11.3683Z" fill="#9B948E"/>
<path d="M46.1872 8.4382C48.5158 7.99098 51.0604 8.63868 52.803 10.2733C55.6405 12.8179 55.949 17.5831 53.5278 20.5132C52.0628 22.3638 49.6879 23.3816 47.3438 23.2736C45.1077 23.2119 42.9024 22.1016 41.5762 20.2664C40.0803 18.2462 39.7565 15.4704 40.6046 13.1109C41.4528 10.7051 43.6735 8.87 46.1872 8.4382ZM46.6498 11.3683C45.8171 11.5842 45.046 12.0622 44.4908 12.7254C43.0104 14.4834 43.0721 17.3518 44.6605 19.0327C45.6012 20.0351 47.0662 20.5286 48.4233 20.251C49.6262 20.0197 50.7057 19.2178 51.2917 18.1383C52.2941 16.2877 52.0011 13.7586 50.4281 12.3244C49.4257 11.3991 47.9607 11.029 46.6498 11.3683Z" fill="#9B948E"/>
<path d="M60.0511 9.3326C61.8246 8.22226 64.184 7.91383 66.0963 8.86996C66.6977 9.13212 67.1912 9.57934 67.6693 10.0266C67.6847 9.61019 67.6693 9.17839 67.6847 8.74659C68.7179 8.76201 69.7512 8.74659 70.7998 8.76201V22.3637C70.7844 24.4148 70.2601 26.5892 68.7796 28.0851C67.1604 29.7352 64.6775 30.2441 62.4414 29.9048C60.0511 29.5501 57.9692 27.8075 57.0439 25.6022C57.9692 25.155 58.9407 24.8003 59.8969 24.3839C60.4366 25.6485 61.5315 26.728 62.9041 26.9747C64.2766 27.2215 65.865 26.8822 66.7594 25.741C67.7155 24.569 67.7155 22.9652 67.6693 21.531C66.9599 22.2249 66.1426 22.8418 65.1556 23.0731C63.012 23.6745 60.6525 22.9343 59.0024 21.4847C57.3369 20.0351 56.3499 17.799 56.4425 15.5783C56.4887 13.0646 57.9075 10.6434 60.0511 9.3326ZM63.2433 11.3065C62.3026 11.4608 61.4236 11.9851 60.8222 12.7099C59.3725 14.4371 59.3725 17.1975 60.8376 18.8939C61.6703 19.8963 63.012 20.4515 64.3074 20.3127C65.5257 20.1893 66.6515 19.4182 67.2529 18.3541C68.2707 16.5498 68.1011 14.0978 66.7286 12.5248C65.8804 11.5533 64.5233 11.0752 63.2433 11.3065Z" fill="#9B948E"/>
<path d="M80.4228 10.1191C82.2734 8.39194 85.1264 7.80592 87.5013 8.71579C89.7528 9.56397 91.187 11.7076 91.9118 13.9128C88.5654 15.3007 85.2343 16.6733 81.8879 18.0612C82.3505 18.9402 83.0599 19.7421 84.016 20.066C85.3577 20.544 86.9615 20.3744 88.0873 19.48C88.5345 19.1407 88.8892 18.6935 89.2285 18.2617C90.0767 18.8323 90.9248 19.3874 91.773 19.958C90.5701 21.7623 88.5499 23.0269 86.3755 23.2274C83.9697 23.5204 81.4098 22.5951 79.8522 20.7137C77.2922 17.7528 77.539 12.7871 80.4228 10.1191ZM82.0729 12.9721C81.5486 13.7278 81.3327 14.653 81.3481 15.5629C83.5842 14.6376 85.8203 13.7123 88.0564 12.7716C87.6863 11.908 86.7919 11.3837 85.882 11.2449C84.417 10.9827 82.8902 11.7692 82.0729 12.9721Z" fill="#9B948E"/>
</g>
<defs>
<clipPath id="clip0_1_82">
<rect width="91.9118" height="30" fill="white"/>
</clipPath>
</defs>
</svg>
