<svg width="19" height="18" viewBox="0 0 19 18" fill="none" xmlns="http://www.w3.org/2000/svg">
<path d="M8.38585 0.690998C8.68521 -0.230312 9.98862 -0.230314 10.288 0.690997L11.8066 5.36476C11.9404 5.77678 12.3244 6.05574 12.7576 6.05574H17.6719C18.6406 6.05574 19.0434 7.29536 18.2597 7.86476L14.284 10.7533C13.9335 11.0079 13.7868 11.4593 13.9207 11.8713L15.4393 16.5451C15.7386 17.4664 14.6841 18.2325 13.9004 17.6631L9.9247 14.7746C9.57421 14.5199 9.09961 14.5199 8.74912 14.7746L4.77339 17.6631C3.98967 18.2325 2.93519 17.4664 3.23454 16.5451L4.75314 11.8713C4.88702 11.4593 4.74036 11.0079 4.38987 10.7533L0.414132 7.86476C-0.369582 7.29536 0.0331932 6.05574 1.00192 6.05574H5.9162C6.34943 6.05574 6.73338 5.77678 6.86726 5.36476L8.38585 0.690998Z" fill="#FFB988"/>
</svg>
